<svg width="24" height="25" viewBox="0 0 24 25" fill="none" xmlns="http://www.w3.org/2000/svg">
<path opacity="0.4" d="M20.2199 7.98767C20.5119 7.98766 20.7679 7.98765 20.9785 8.00201C21.1985 8.01702 21.434 8.05064 21.6644 8.15225C22.0522 8.3232 22.3488 8.58504 22.5339 8.92931C22.7121 9.26047 22.7549 9.60795 22.7496 9.90522C22.7442 10.2005 22.6901 10.4893 22.6362 10.7303C22.6033 10.8773 22.4849 11.3707 22.4849 11.3707C22.4038 11.7557 22.144 12.0667 21.8031 12.2285C21.4336 12.4038 21.1928 12.7265 21.1306 13.0808L20.431 17.1433C20.3464 17.7185 20.2472 18.3926 20.0904 19.0028C19.858 19.9077 19.4564 20.8887 18.6183 21.5624L18.6154 21.5647C17.9859 22.0658 17.2478 22.2842 16.3692 22.3876C15.5183 22.4877 14.4502 22.4877 13.1152 22.4877H10.8848C9.54983 22.4877 8.48171 22.4877 7.63078 22.3876C6.75215 22.2842 6.01409 22.0658 5.38455 21.5647L5.38167 21.5624C4.54362 20.8887 4.14201 19.9077 3.90958 19.0028C3.75283 18.3926 3.65361 17.7185 3.56896 17.1434L2.86937 13.0808C2.80715 12.7265 2.56639 12.4038 2.19688 12.2285C1.85601 12.0667 1.59618 11.7557 1.51506 11.3707C1.51506 11.3707 1.39665 10.8773 1.36376 10.7303C1.30986 10.4893 1.25576 10.2005 1.25043 9.90522C1.24507 9.60795 1.28792 9.26047 1.46605 8.92931C1.65124 8.58504 1.94781 8.3232 2.33555 8.15225C2.56603 8.05064 2.80147 8.01702 3.02149 8.00201C3.23205 7.98765 3.48813 7.98766 3.78013 7.98767H20.2199Z" fill="white"/>
<path fill-rule="evenodd" clip-rule="evenodd" d="M10.4011 2.82176C10.9071 3.04313 11.1378 3.63276 10.9164 4.13874L7.41641 12.1387C7.19504 12.6447 6.60541 12.8755 6.09943 12.6541C5.59345 12.4327 5.36273 11.8431 5.5841 11.3371L9.0841 3.3371C9.30546 2.83112 9.89509 2.6004 10.4011 2.82176Z" fill="white"/>
<path fill-rule="evenodd" clip-rule="evenodd" d="M9.25 12.7377C9.25 12.3235 9.58579 11.9877 10 11.9877H14C14.4142 11.9877 14.75 12.3235 14.75 12.7377C14.75 13.1519 14.4142 13.4877 14 13.4877H10C9.58579 13.4877 9.25 13.1519 9.25 12.7377Z" fill="white"/>
<path d="M15.8946 3.29073C15.6477 2.79676 15.047 2.59653 14.553 2.84352C14.059 3.09051 13.8588 3.69118 14.1058 4.18516L16.0072 7.98795H18.2433L15.8946 3.29073Z" fill="white"/>
</svg>
