<svg width="24" height="25" viewBox="0 0 24 25" fill="none" xmlns="http://www.w3.org/2000/svg">
<path d="M8.2929 18.3199C8.68342 18.7104 9.31659 18.7104 9.70711 18.3199C10.0976 17.9294 10.0976 17.2962 9.7071 16.9057L6.41419 13.6128H20C20.5523 13.6128 21 13.1651 21 12.6128C21 12.0605 20.5523 11.6128 20 11.6128H6.41423L9.70707 8.31989C10.0976 7.92936 10.0976 7.2962 9.70706 6.90568C9.31653 6.51516 8.68337 6.51516 8.29285 6.90569L3.29823 11.9004C3.27977 11.9186 3.26202 11.9375 3.24501 11.957C3.17745 12.0347 3.12387 12.1202 3.08425 12.2104C3.03045 12.3327 3.00042 12.4678 3 12.6098V12.6128C3 12.6159 3.00001 12.619 3.00004 12.6221C3.00118 12.7478 3.02554 12.8681 3.06904 12.9787C3.11782 13.103 3.19243 13.2195 3.2929 13.3199L8.2929 18.3199Z" fill="#797979"/>
</svg>
