<svg width="17" height="17" viewBox="0 0 17 17" fill="none" xmlns="http://www.w3.org/2000/svg">
<path fill-rule="evenodd" clip-rule="evenodd" d="M13.7561 3.24408C14.0815 3.56952 14.0815 4.09715 13.7561 4.42259L4.42272 13.7559C4.09728 14.0813 3.56964 14.0813 3.2442 13.7559C2.91876 13.4305 2.91876 12.9028 3.2442 12.5774L12.5775 3.24408C12.903 2.91864 13.4306 2.91864 13.7561 3.24408Z" fill="#FF3B30"/>
<path fill-rule="evenodd" clip-rule="evenodd" d="M3.2442 3.24408C3.56964 2.91864 4.09728 2.91864 4.42272 3.24408L13.7561 12.5774C14.0815 12.9028 14.0815 13.4305 13.7561 13.7559C13.4306 14.0813 12.903 14.0813 12.5775 13.7559L3.2442 4.42259C2.91876 4.09715 2.91876 3.56952 3.2442 3.24408Z" fill="#FF3B30"/>
</svg>
