<svg width="103" height="103" viewBox="0 0 103 103" fill="none" xmlns="http://www.w3.org/2000/svg">
<path opacity="0.4" d="M42.3625 8.05029H60.6375C77.8674 8.05029 86.4822 8.05029 91.8351 13.4226C97.1875 18.7948 97.1875 27.4414 97.1875 44.7346V47.0275C97.1875 64.3203 97.1875 72.9669 91.8351 78.3393C86.4822 83.7113 77.8674 83.7113 60.6375 83.7113C58.0769 83.7687 56.0373 83.9642 54.0339 84.4224C49.4277 85.4866 45.1084 87.6456 40.8699 89.7642C40.0708 90.1637 39.2732 90.5623 38.4785 90.9516C31.3394 94.4451 27.7699 96.1923 25.5298 94.5569C23.3924 92.9589 23.2983 89.9452 23.8937 86.612C24.1396 85.2354 24.2626 84.5469 23.9631 84.1142C23.6637 83.682 22.9743 83.5549 21.5955 83.2999C17.1063 82.4708 13.6341 80.8171 11.1651 78.3393C5.8125 72.9669 5.8125 64.3203 5.8125 47.0275V44.7346C5.8125 27.4414 5.8125 18.7948 11.1651 13.4226C16.5177 8.05029 25.1327 8.05029 42.3625 8.05029Z" fill="#782FEF"/>
</svg>
