<svg width="36" height="36" viewBox="0 0 36 36" fill="none" xmlns="http://www.w3.org/2000/svg">
<path d="M13.3738 12.0404C12.9832 11.6499 12.9832 11.0168 13.3738 10.6262L17.2929 6.70711C17.6834 6.31658 18.3166 6.31658 18.7071 6.70711L22.6262 10.6262C23.0168 11.0167 23.0168 11.6499 22.6262 12.0404L18.7071 15.9596C18.3166 16.3501 17.6834 16.3501 17.2929 15.9596L13.3738 12.0404Z" fill="#6D6D6D"/>
<path d="M6.70711 18.7071C6.31658 18.3166 6.31658 17.6834 6.70711 17.2929L10.6262 13.3738C11.0167 12.9832 11.6499 12.9832 12.0404 13.3738L15.9596 17.2929C16.3501 17.6834 16.3501 18.3166 15.9596 18.7071L12.0404 22.6262C11.6499 23.0168 11.0168 23.0168 10.6262 22.6262L6.70711 18.7071Z" fill="#6D6D6D"/>
<path d="M20.0404 18.7071C19.6499 18.3166 19.6499 17.6834 20.0404 17.2929L23.9596 13.3738C24.3501 12.9832 24.9832 12.9832 25.3738 13.3738L29.2929 17.2929C29.6834 17.6834 29.6834 18.3166 29.2929 18.7071L25.3738 22.6262C24.9832 23.0168 24.3501 23.0168 23.9596 22.6262L20.0404 18.7071Z" fill="#6D6D6D"/>
<path d="M13.3738 25.3738C12.9832 24.9832 12.9832 24.3501 13.3738 23.9596L17.2929 20.0404C17.6834 19.6499 18.3166 19.6499 18.7071 20.0404L22.6262 23.9596C23.0168 24.3501 23.0168 24.9832 22.6262 25.3738L18.7071 29.2929C18.3166 29.6834 17.6834 29.6834 17.2929 29.2929L13.3738 25.3738Z" fill="#6D6D6D"/>
</svg>
