<svg width="24" height="24" viewBox="0 0 24 24" fill="none" xmlns="http://www.w3.org/2000/svg">
<path opacity="0.4" d="M1.25 12C1.25 17.9371 6.06294 22.75 12 22.75C17.9371 22.75 22.75 17.9371 22.75 12C22.75 6.06294 17.9371 1.25 12 1.25C6.06294 1.25 1.25 6.06294 1.25 12Z" fill="#782FEF"/>
<path fill-rule="evenodd" clip-rule="evenodd" d="M11.6819 11.0273C11.9289 11.0605 12.2707 11.1494 12.5607 11.4394C12.8507 11.7294 12.9396 12.0711 12.9728 12.3182C13.0003 12.5228 13.0001 12.7608 13 12.9606C13 12.974 13 12.9871 13 13V17C13 17.5523 12.5523 18 12 18C11.4477 18 11 17.5523 11 17V13C10.4477 13 10 12.5523 10 12C10 11.4477 10.4477 11 11 11C11.0129 11 11.0261 11 11.0394 11C11.2393 10.9999 11.4772 10.9997 11.6819 11.0273Z" fill="#782FEF"/>
<path fill-rule="evenodd" clip-rule="evenodd" d="M11 8C11 7.44772 11.4457 7 11.9955 7H12.0045C12.5543 7 13 7.44772 13 8C13 8.55228 12.5543 9 12.0045 9H11.9955C11.4457 9 11 8.55228 11 8Z" fill="#782FEF"/>
</svg>
