<svg width="25" height="24" viewBox="0 0 25 24" fill="none" xmlns="http://www.w3.org/2000/svg">
<path opacity="0.4" d="M14.5553 1.25H10.4447C9.07749 1.24998 7.97477 1.24996 7.10736 1.36764C6.20602 1.48992 5.44761 1.75161 4.84597 2.35869C4.24526 2.96484 3.98716 3.72735 3.86641 4.63362C3.74997 5.50753 3.74998 6.61904 3.75 7.99973V18.7008C3.74996 19.4095 3.74992 20.0198 3.8149 20.4869C3.88152 20.9658 4.04247 21.5107 4.55584 21.8414C5.31435 22.3299 6.155 21.9917 6.62709 21.7447C6.89744 21.6033 7.66019 21.0865 7.87095 20.9417C8.14376 20.7696 8.2948 20.678 8.4079 20.6249C8.4296 20.6016 8.5012 20.5706 8.61404 20.6327C8.72825 20.6899 8.87416 20.7809 9.12906 20.9417L11.0667 22.1636C11.3013 22.3116 11.5235 22.4518 11.7239 22.5507C11.9476 22.6611 12.2007 22.75 12.5 22.75C12.7993 22.75 13.0524 22.6611 13.2761 22.5507C13.4765 22.4518 13.6986 22.3117 13.9332 22.1637L15.871 20.9417C16.1438 20.7696 16.2948 20.678 16.4079 20.6249C16.433 20.6036 16.5093 20.5753 16.614 20.6327C16.7283 20.6899 17.3829 21.1303 17.6378 21.2911C17.8485 21.4359 18.1026 21.6033 18.3729 21.7447C18.845 21.9917 19.6857 22.3299 20.4442 21.8414C20.9575 21.5107 21.1185 20.9658 21.1851 20.4869C21.2501 20.0198 21.25 19.4095 21.25 18.7008V7.99978C21.25 6.61907 21.25 5.50754 21.1336 4.63362C21.0128 3.72735 20.7547 2.96484 20.154 2.35869C19.5524 1.75161 18.794 1.48992 17.8926 1.36764C17.0252 1.24996 15.9225 1.24998 14.5553 1.25Z" fill="#782FEF"/>
<path fill-rule="evenodd" clip-rule="evenodd" d="M12.5 11C12.5 11.5523 12.0523 12 11.5 12H8.5C7.94772 12 7.5 11.5523 7.5 11C7.5 10.4477 7.94772 10 8.5 10H11.5C12.0523 10 12.5 10.4477 12.5 11Z" fill="#782FEF"/>
<path fill-rule="evenodd" clip-rule="evenodd" d="M15.5 7C15.5 7.55228 15.0523 8 14.5 8H8.5C7.94772 8 7.5 7.55228 7.5 7C7.5 6.44772 7.94772 6 8.5 6H14.5C15.0523 6 15.5 6.44772 15.5 7Z" fill="#782FEF"/>
</svg>
