<svg width="111" height="111" viewBox="0 0 111 111" fill="none" xmlns="http://www.w3.org/2000/svg">
<path fill-rule="evenodd" clip-rule="evenodd" d="M37.2121 20.2173H37.2751C49.918 20.2173 59.1717 31.3663 60.9083 42.3326C61.2333 44.3845 61.2333 46.7633 61.2328 50.6683L61.2347 101.451C61.2347 103.982 59.1822 106.034 56.6509 106.034C54.12 106.034 52.068 103.982 52.068 101.45L52.0689 86.5549H34.1496C30.2672 86.5549 27.1358 86.5549 24.6036 86.3395C21.9954 86.1176 19.7088 85.6488 17.6072 84.5254C14.6092 82.9231 12.1538 80.4678 10.5513 77.4698C9.42796 75.3679 8.95899 73.0813 8.73711 70.4734C8.52174 67.9411 8.52179 64.8097 8.52179 60.9272V60.6132C8.52179 54.0614 8.52179 48.9248 8.87241 44.8021C9.22955 40.6033 9.96916 37.1417 11.6337 34.0276C14.0908 29.4307 17.8558 25.6656 22.4527 23.2086C26.454 21.0698 31.0747 20.4421 37.1492 20.2196L37.2121 20.2173ZM30.2926 37.2795C27.7613 37.2795 25.7093 39.3315 25.7093 41.8628C25.7093 44.3941 27.7613 46.4461 30.2926 46.4461H39.4593C41.9906 46.4461 44.0426 44.3941 44.0426 41.8628C44.0426 39.3315 41.9906 37.2795 39.4593 37.2795H30.2926Z" fill="#782FEF"/>
<path fill-rule="evenodd" clip-rule="evenodd" d="M89.8759 14.363C87.3445 14.363 85.2926 16.415 85.2926 18.9463V37.2796C85.2926 39.8109 83.2406 41.863 80.7092 41.863C78.1779 41.863 76.1259 39.8109 76.1259 37.2796V18.9463C76.1259 11.3524 82.2822 5.19629 89.8759 5.19629C92.4073 5.19629 94.4592 7.24834 94.4592 9.77962C94.4592 12.3109 92.4073 14.363 89.8759 14.363Z" fill="#782FEF"/>
<path opacity="0.4" d="M66.9615 86.5501H76.8506C80.7326 86.5501 83.8644 86.5501 86.3963 86.3347C89.0046 86.1129 91.2913 85.644 93.3927 84.5206C96.3907 82.9183 98.8464 80.4626 100.449 77.4646C101.572 75.3631 102.041 73.0765 102.263 70.4686C102.478 67.9363 102.478 64.805 102.478 60.9229V60.6085C102.478 54.0566 102.478 48.92 102.128 44.7973C101.771 40.5984 101.031 37.1368 99.3662 34.0227C96.9091 29.4258 93.1443 25.6608 88.5472 23.2037C85.4333 21.5391 81.9715 20.7996 77.7727 20.4424C73.65 20.0918 68.5135 20.0918 61.9616 20.0918H53.8C60.8006 25.3753 65.3285 33.6244 66.5651 41.4317C66.9615 43.9361 66.9611 46.7246 66.9602 50.2501L66.9615 86.5501Z" fill="#782FEF"/>
</svg>
