<svg width="53" height="36" viewBox="0 0 53 36" fill="none" xmlns="http://www.w3.org/2000/svg">
<g clip-path="url(#clip0_37_815)">
<path d="M0 4.5C0 2.01472 1.97741 0 4.41667 0H48.5833C51.0226 0 53 2.01472 53 4.5V31.5C53 33.9853 51.0226 36 48.5833 36H4.41667C1.97741 36 0 33.9853 0 31.5V4.5Z" fill="#DCEFDC"/>
<path d="M44.0429 11.4813H35.5398C36.0351 14.3411 38.7594 17.0327 41.7314 17.0327H48.5009C48.5834 16.7804 48.5834 16.3598 48.5834 16.1075C48.5834 13.5841 46.5195 11.4813 44.0429 11.4813Z" fill="url(#paint0_linear_37_815)"/>
<path d="M36.2827 17.5374V24.5187H40.4104V20.8177H44.0428C46.0241 20.8177 47.7578 19.3878 48.3357 17.5374H36.2827Z" fill="#4FAD50"/>
<path d="M21.7532 11.4813V24.4346H25.3856C25.3856 24.4346 26.2937 24.4346 26.789 23.5094C29.2656 18.5467 30.0086 17.0327 30.0086 17.0327H30.504V24.4346H34.6317V11.4813H30.9993C30.9993 11.4813 30.0912 11.5654 29.5959 12.4066C27.532 16.6963 26.3762 18.8832 26.3762 18.8832H25.8809V11.4813H21.7532Z" fill="#4FAD50"/>
<path d="M4.41675 24.5187V11.5654H8.54447C8.54447 11.5654 9.70025 11.5654 10.3607 13.4159C12.0118 18.2944 12.1769 18.9673 12.1769 18.9673C12.1769 18.9673 12.5071 17.7897 13.9931 13.4159C14.6535 11.5654 15.8093 11.5654 15.8093 11.5654H19.937V24.5187H15.8093V17.5374H15.314L13.0024 24.5187H11.1862L8.87471 17.5374H8.37938V24.5187H4.41675Z" fill="#4FAD50"/>
</g>
<defs>
<linearGradient id="paint0_linear_37_815" x1="35.5251" y1="14.2968" x2="48.5542" y2="14.2968" gradientUnits="userSpaceOnUse">
<stop stop-color="#27B1E6"/>
<stop offset="1" stop-color="#148ACA"/>
</linearGradient>
<clipPath id="clip0_37_815">
<rect width="53" height="36" fill="white"/>
</clipPath>
</defs>
</svg>
