<svg width="24" height="25" viewBox="0 0 24 25" fill="none" xmlns="http://www.w3.org/2000/svg">
<path opacity="0.4" d="M4.26193 7.70214C4.28741 7.68455 4.31838 7.66428 4.35579 7.64129C4.67415 7.44571 5.18221 7.21961 5.99328 6.86266L7.54868 6.17812C8.03366 5.96468 8.23713 5.43303 8.00313 4.99065C7.76914 4.54827 7.1863 4.36267 6.70132 4.57611L5.14592 5.26064C4.42114 5.57955 3.71606 5.88978 3.2665 6.16596C2.81708 6.44206 2.25 6.8963 2.25 7.63818V17.4131C2.25 18.5326 3.06888 19.276 4.07416 19.8775C5.0925 20.4867 6.80139 21.2065 8.69452 22.0039C10.1139 22.6022 11.0284 22.9877 12 22.9877C12.9716 22.9877 13.8861 22.6022 15.3055 22.0039C17.1986 21.2065 18.9075 20.4867 19.9258 19.8775C20.9311 19.276 21.75 18.5326 21.75 17.4131V7.63818C21.75 6.8963 21.1829 6.44206 20.7335 6.16596C20.2839 5.88979 19.645 5.60864 18.9202 5.28974L17.2987 4.57611C16.8137 4.36267 16.2309 4.54827 15.9969 4.99065C15.7629 5.43303 15.9663 5.96469 16.4513 6.17812L18.0067 6.86266C18.8178 7.21961 19.3259 7.44571 19.6442 7.64129C19.6816 7.66428 19.7126 7.68455 19.7381 7.70215C19.7844 7.73409 19.8115 7.78625 19.8254 7.84073C19.8546 7.95514 19.8247 8.08415 19.7223 8.1431C19.3826 8.33882 18.9121 8.56713 18.2694 8.87723L15.3482 10.2866C13.4806 11.1877 12.7582 11.5169 12 11.5169C11.2418 11.5169 10.5195 11.1877 8.65182 10.2866L5.73062 8.87722C5.08791 8.56713 4.61737 8.33882 4.27766 8.14311C4.17534 8.08416 4.14539 7.95515 4.1746 7.84073C4.18851 7.78625 4.21565 7.73408 4.26193 7.70214Z" fill="#C5A9FA"/>
<path fill-rule="evenodd" clip-rule="evenodd" d="M5.32895 12.9307C5.51376 12.56 5.96409 12.4093 6.33479 12.5941L8.33479 13.5912C8.70549 13.776 8.85619 14.2263 8.67138 14.597C8.48657 14.9677 8.03624 15.1184 7.66554 14.9336L5.66554 13.9365C5.29484 13.7517 5.14414 13.3014 5.32895 12.9307Z" fill="#C5A9FA"/>
<path fill-rule="evenodd" clip-rule="evenodd" d="M14.7072 1.53069C15.0977 1.92121 15.0977 2.55437 14.7072 2.9449L13.4143 4.23779L14.7072 5.53069C15.0977 5.92121 15.0977 6.55438 14.7072 6.9449C14.3167 7.33542 13.6835 7.33542 13.293 6.9449L12.0001 5.65201L10.7072 6.9449C10.3167 7.33542 9.68354 7.33542 9.29301 6.9449C8.90249 6.55438 8.90249 5.92121 9.29301 5.53069L10.5859 4.23779L9.29301 2.9449C8.90249 2.55438 8.90249 1.92121 9.29301 1.53069C9.68354 1.14016 10.3167 1.14016 10.7072 1.53069L12.0001 2.82358L13.293 1.53069C13.6835 1.14016 14.3167 1.14016 14.7072 1.53069Z" fill="#C5A9FA"/>
</svg>
