<svg width="17" height="17" viewBox="0 0 17 17" fill="none" xmlns="http://www.w3.org/2000/svg">
<path fill-rule="evenodd" clip-rule="evenodd" d="M8.5 3C5.46243 3 3 5.46243 3 8.5C3 11.5375 5.46243 14 8.5 14C11.5375 14 14 11.5375 14 8.5C14 5.46243 11.5375 3 8.5 3ZM2 8.5C2 4.91015 4.91015 2 8.5 2C12.0899 2 15 4.91015 15 8.5C15 12.0899 12.0899 15 8.5 15C4.91015 15 2 12.0899 2 8.5Z" fill="#FF9500"/>
<path d="M8 4.5C8 4.22386 8.22387 4 8.5 4C9.28993 4 10.0659 4.20793 10.75 4.60289C11.4341 4.99784 12.0021 5.56591 12.3971 6.25C12.7921 6.93409 13 7.71007 13 8.5C13 9.28993 12.7921 10.0659 12.3971 10.75C12.0021 11.4341 11.4341 12.0021 10.75 12.3971C10.0659 12.7921 9.28993 13 8.5 13C7.71007 13 6.93408 12.7921 6.24999 12.3971C5.56591 12.0021 4.99783 11.4341 4.60288 10.75C4.53657 10.6351 4.51861 10.4987 4.55293 10.3706C4.58725 10.2425 4.67105 10.1333 4.78589 10.067L8 8.21133V4.5Z" fill="#FF9500"/>
</svg>
