<svg width="103" height="103" viewBox="0 0 103 103" fill="none" xmlns="http://www.w3.org/2000/svg">
<path fill-rule="evenodd" clip-rule="evenodd" d="M14.8788 71.2511C11.2523 74.816 11.3064 80.5203 14.9436 84.0359C18.7158 87.5996 24.8465 87.5392 28.5567 83.9633C32.2581 80.3958 32.2029 74.6932 28.5567 71.1788L28.535 71.158L21.8191 64.562L14.8788 71.2511Z" fill="#782FEF"/>
<path opacity="0.4" d="M51.4996 5.92529C26.267 5.92529 5.81201 26.3803 5.81201 51.6128C5.81201 56.7383 6.65606 61.6666 8.21271 66.2668C8.5227 67.1827 9.73417 67.365 10.4247 66.688L10.4442 66.6688L19.628 57.8178C20.871 56.6197 22.8418 56.6291 24.0735 57.8386L32.992 66.5979C39.1985 72.5916 39.3093 82.4521 32.9806 88.5517C32.9548 88.5763 32.929 88.601 32.903 88.6256C31.2256 90.2211 30.3868 91.0184 30.5058 91.6924C30.6247 92.3665 31.5073 92.7507 33.2725 93.5195C38.8562 95.9518 45.0204 97.3003 51.4996 97.3003C76.7322 97.3003 97.1871 76.8455 97.1871 51.6128C97.1871 26.3803 76.7322 5.92529 51.4996 5.92529Z" fill="#782FEF"/>
<path fill-rule="evenodd" clip-rule="evenodd" d="M29.187 36.4888C29.187 33.5547 31.5655 31.1763 34.4995 31.1763H34.5377C37.4717 31.1763 39.8502 33.5547 39.8502 36.4888C39.8502 39.4228 37.4717 41.8013 34.5377 41.8013H34.4995C31.5655 41.8013 29.187 39.4228 29.187 36.4888ZM63.1488 36.4888C63.1488 33.5547 65.5275 31.1763 68.4613 31.1763H68.4996C71.4333 31.1763 73.8121 33.5547 73.8121 36.4888C73.8121 39.4228 71.4333 41.8013 68.4996 41.8013H68.4613C65.5275 41.8013 63.1488 39.4228 63.1488 36.4888Z" fill="#782FEF"/>
<path fill-rule="evenodd" clip-rule="evenodd" d="M39.2785 64.4478C42.8762 62.3657 47.054 61.1753 51.5 61.1753C56.9982 61.1753 62.0803 62.9951 66.165 66.0645C67.5722 67.1219 67.8557 69.1202 66.7983 70.5274C65.7409 71.935 63.7425 72.2185 62.3353 71.1611C59.317 68.8929 55.5698 67.5503 51.5 67.5503C48.2049 67.5503 45.125 68.43 42.4716 69.9656C40.9479 70.8474 38.9979 70.3268 38.1162 68.8032C37.2345 67.2796 37.7549 65.3297 39.2785 64.4478Z" fill="#782FEF"/>
</svg>
