<svg width="57" height="26" viewBox="0 0 57 26" fill="none" xmlns="http://www.w3.org/2000/svg">
<path d="M0.5 5.65895L3.79089 11.2867V14.7195L0.50385 20.3362L0.5 5.65895Z" fill="#5B57A2"/>
<path d="M13.1358 9.24003L16.2194 7.43178L22.5304 7.42614L13.1358 12.9324V9.24003Z" fill="#D90751"/>
<path d="M13.1181 5.62604L13.1356 13.077L9.837 11.1379V0L13.1181 5.62604Z" fill="#FAB718"/>
<path d="M22.5302 7.4252L16.219 7.43083L13.1181 5.62604L9.837 0L22.5302 7.4252Z" fill="#ED6F26"/>
<path d="M13.1356 20.3673V16.7524L9.837 14.8501L9.83881 25.999L13.1356 20.3673Z" fill="#63B22F"/>
<path d="M16.2116 18.5756L3.79089 11.2867L0.5 5.65895L22.5169 18.5683L16.2116 18.5756Z" fill="#1487C9"/>
<path d="M9.83899 26L13.1353 20.3683L16.2113 18.5765L22.5166 18.5692L9.83899 26Z" fill="#017F36"/>
<path d="M0.503981 20.337L9.86416 14.8511L6.7173 13.0038L3.79102 14.7202L0.503981 20.337Z" fill="#984995"/>
<path fill-rule="evenodd" clip-rule="evenodd" d="M40.3017 19.5C43.1922 19.5 45.3386 17.7166 45.3386 15.0129C45.3386 12.3959 43.7551 10.6969 41.1082 10.6969C39.8868 10.6969 38.8789 11.1295 38.1197 11.8761C38.3009 10.3331 39.5977 9.20637 41.0253 9.20637C41.3549 9.20637 43.8354 9.20122 43.8354 9.20122L45.2382 6.49998C45.2382 6.49998 42.1239 6.57147 40.6761 6.57147C37.3683 6.62932 35.134 9.65496 35.134 13.3297C35.134 17.6112 37.3131 19.5 40.3017 19.5ZM40.3193 13.0895C41.3925 13.0895 42.1364 13.7992 42.1364 15.0126C42.1364 16.1045 41.4754 17.0045 40.3193 17.0069C39.2133 17.0069 38.4692 16.173 38.4692 15.0311C38.4692 13.8174 39.2133 13.0895 40.3193 13.0895ZM56.5 10.0751V19.1747H53.271V12.7915H50.162V19.1747H46.933V10.0745L56.5 10.0751ZM30.6042 16.6543C31.7432 16.5707 32.5056 16.1282 32.5056 16.1282L33.7006 18.3529C32.9353 18.8476 31.6797 19.1693 30.7695 19.2032C27.5131 19.2635 25.2479 17.2695 25.2479 14.3644C25.2479 11.496 27.6579 9.45444 30.7695 9.45444C32.0024 9.45444 33.0624 9.78732 33.8582 10.3943C33.6907 10.693 33.463 11.1067 33.2466 11.5026L32.9 12.1381L32.5847 12.7185C32.5847 12.7185 31.438 12.1139 30.5713 12.1139C29.1578 12.1139 28.1284 12.9405 28.1284 14.3826C28.1284 15.8613 29.2949 16.6934 30.6042 16.6543Z" fill="white"/>
</svg>
