<svg width="57" height="27" viewBox="0 0 57 27" fill="none" xmlns="http://www.w3.org/2000/svg">
<path d="M0.166626 6.15895L3.45751 11.7867V15.2195L0.170476 20.8362L0.166626 6.15895Z" fill="#5B57A2"/>
<path d="M12.8024 9.74003L15.8861 7.93178L22.197 7.92614L12.8024 13.4324V9.74003Z" fill="#D90751"/>
<path d="M12.7848 6.12604L12.8022 13.577L9.50363 11.6379V0.5L12.7848 6.12604Z" fill="#FAB718"/>
<path d="M22.1968 7.9252L15.8857 7.93083L12.7848 6.12604L9.50363 0.5L22.1968 7.9252Z" fill="#ED6F26"/>
<path d="M12.8022 20.8673V17.2524L9.50363 15.3501L9.50544 26.499L12.8022 20.8673Z" fill="#63B22F"/>
<path d="M15.8783 19.0756L3.45751 11.7867L0.166626 6.15895L22.1835 19.0683L15.8783 19.0756Z" fill="#1487C9"/>
<path d="M9.50562 26.5L12.8019 20.8683L15.8779 19.0765L22.1832 19.0692L9.50562 26.5Z" fill="#017F36"/>
<path d="M0.170607 20.837L9.53079 15.3511L6.38393 13.5038L3.45764 15.2202L0.170607 20.837Z" fill="#984995"/>
<path fill-rule="evenodd" clip-rule="evenodd" d="M39.9683 20C42.8588 20 45.0053 18.2166 45.0053 15.5129C45.0053 12.8959 43.4217 11.1969 40.7748 11.1969C39.5534 11.1969 38.5455 11.6295 37.7864 12.3761C37.9676 10.8331 39.2643 9.70637 40.6919 9.70637C41.0215 9.70637 43.5021 9.70122 43.5021 9.70122L44.9049 6.99998C44.9049 6.99998 41.7906 7.07147 40.3428 7.07147C37.0349 7.12932 34.8006 10.155 34.8006 13.8297C34.8006 18.1112 36.9797 20 39.9683 20ZM39.9859 13.5895C41.0591 13.5895 41.8031 14.2992 41.8031 15.5126C41.8031 16.6045 41.1421 17.5045 39.9859 17.5069C38.8799 17.5069 38.1358 16.673 38.1358 15.5311C38.1358 14.3174 38.8799 13.5895 39.9859 13.5895ZM56.1666 10.5751V19.6747H52.9376V13.2915H49.8286V19.6747H46.5996V10.5745L56.1666 10.5751ZM30.2709 17.1543C31.4098 17.0707 32.1723 16.6282 32.1723 16.6282L33.3672 18.8529C32.602 19.3476 31.3463 19.6693 30.4361 19.7032C27.1797 19.7635 24.9146 17.7695 24.9146 14.8644C24.9146 11.996 27.3245 9.95444 30.4361 9.95444C31.669 9.95444 32.729 10.2873 33.5248 10.8943C33.3573 11.193 33.1296 11.6067 32.9132 12.0026L32.5666 12.6381L32.2513 13.2185C32.2513 13.2185 31.1046 12.6139 30.2379 12.6139C28.8244 12.6139 27.795 13.4405 27.795 14.8826C27.795 16.3613 28.9615 17.1934 30.2709 17.1543Z" fill="black"/>
</svg>
