<svg width="24" height="24" viewBox="0 0 24 24" fill="none" xmlns="http://www.w3.org/2000/svg">
<rect width="24" height="24" rx="12" fill="#FF3B30"/>
<path fill-rule="evenodd" clip-rule="evenodd" d="M16.599 7.40107C16.8837 7.68583 16.8837 8.14751 16.599 8.43226L8.43227 16.599C8.14751 16.8837 7.68582 16.8837 7.40107 16.599C7.11631 16.3142 7.11631 15.8525 7.40107 15.5677L15.5677 7.40107C15.8525 7.11631 16.3142 7.11631 16.599 7.40107Z" fill="#F5F5F5"/>
<path fill-rule="evenodd" clip-rule="evenodd" d="M7.40107 7.40107C7.68582 7.11631 8.14751 7.11631 8.43227 7.40107L16.599 15.5677C16.8837 15.8525 16.8837 16.3142 16.599 16.599C16.3142 16.8837 15.8525 16.8837 15.5677 16.599L7.40107 8.43226C7.11631 8.14751 7.11631 7.68583 7.40107 7.40107Z" fill="#F5F5F5"/>
</svg>
