<svg width="46" height="47" viewBox="0 0 46 47" fill="none" xmlns="http://www.w3.org/2000/svg">
<path opacity="0.4" d="M2.39587 23.613C2.39587 12.2336 11.6207 3.00879 23 3.00879C34.3795 3.00879 43.6042 12.2336 43.6042 23.613C43.6042 34.9924 34.3795 44.2171 23 44.2171C11.6207 44.2171 2.39587 34.9924 2.39587 23.613Z" fill="#333333"/>
<path d="M16.748 18.821C16.748 15.3788 19.542 12.5918 22.984 12.5918C26.4261 12.5918 29.22 15.3788 29.22 18.821C29.22 22.2631 26.4261 25.0501 22.984 25.0501C19.542 25.0501 16.748 22.2631 16.748 18.821Z" fill="#333333"/>
<path d="M13.3473 32.1913C18.3515 26.9647 27.5492 26.6801 32.6617 32.2001L33.0125 32.5506C33.291 32.8291 33.443 33.2096 33.433 33.6033C33.4232 33.9969 33.2522 34.3694 32.9601 34.6335C30.3265 37.0149 26.8312 38.4672 23.0002 38.4672C19.1692 38.4672 15.6739 37.0149 13.0402 34.6335C12.7482 34.3694 12.5772 33.9969 12.5673 33.6033C12.5575 33.2096 12.7095 32.8291 12.9879 32.5506L13.3473 32.1913Z" fill="#333333"/>
</svg>
