<svg width="78" height="53" viewBox="0 0 78 53" fill="none" xmlns="http://www.w3.org/2000/svg">
<g clip-path="url(#clip0_172_2499)">
<path d="M0.333252 7.24967C0.333252 3.70585 3.20609 0.833008 6.74992 0.833008H70.9166C74.4604 0.833008 77.3333 3.70585 77.3333 7.24967V45.7497C77.3333 49.2935 74.4604 52.1663 70.9166 52.1663H6.74992C3.20609 52.1663 0.333252 49.2935 0.333252 45.7497V7.24967Z" fill="#D8E3F3"/>
<path d="M66.6012 16.9307H62.5673C61.3478 16.9307 60.4097 17.3059 59.8468 18.5254L52.1543 36.0681H57.5953C57.5953 36.0681 58.5334 33.7228 58.7211 33.16C59.2839 33.16 64.6311 33.16 65.3816 33.16C65.5693 33.8166 66.0383 35.9743 66.0383 35.9743H70.9165L66.6012 16.9307ZM60.222 29.2199C60.6911 28.0942 62.2859 23.8727 62.2859 23.8727C62.2859 23.9665 62.7549 22.7469 62.9426 22.0903L63.3178 23.7789C63.3178 23.7789 64.3497 28.3756 64.5373 29.3137H60.222V29.2199Z" fill="#3362AB"/>
<path d="M52.5296 29.7829C52.5296 33.723 48.9648 36.3497 43.4299 36.3497C41.0846 36.3497 38.8332 35.8807 37.6136 35.3178L38.3641 31.0025L39.0208 31.2839C40.7094 32.0344 41.8351 32.3158 43.899 32.3158C45.3999 32.3158 46.9947 31.753 46.9947 30.4396C46.9947 29.5953 46.3381 29.0325 44.2742 28.0943C42.3042 27.1562 39.6775 25.6553 39.6775 22.9347C39.6775 19.1823 43.3361 16.6494 48.4957 16.6494C50.4657 16.6494 52.1543 17.0247 53.1863 17.4937L52.4358 21.6214L52.0605 21.2461C51.1224 20.8709 49.9029 20.4957 48.1205 20.4957C46.1504 20.5895 45.2123 21.4338 45.2123 22.1843C45.2123 23.0286 46.3381 23.6852 48.1205 24.5295C51.1224 25.9367 52.5296 27.5315 52.5296 29.7829Z" fill="#3362AB"/>
<path d="M6.74988 17.1184L6.84369 16.7432H14.9114C16.0372 16.7432 16.8815 17.1184 17.1629 18.3379L18.9453 26.7809C17.1629 22.278 13.0352 18.6194 6.74988 17.1184Z" fill="#F9B50B"/>
<path d="M30.2964 16.9307L22.1348 35.9743H16.6L11.9094 20.0265C15.2866 22.1841 18.1009 25.5613 19.1329 27.9066L19.6957 29.8766L24.7615 16.8369H30.2964V16.9307Z" fill="#3362AB"/>
<path d="M32.454 16.8369H37.6136L34.3303 35.9743H29.1707L32.454 16.8369Z" fill="#3362AB"/>
</g>
<defs>
<clipPath id="clip0_172_2499">
<rect width="77" height="51.3333" fill="white" transform="translate(0.333252 0.833008)"/>
</clipPath>
</defs>
</svg>
