<svg width="75" height="27" viewBox="0 0 75 27" fill="none" xmlns="http://www.w3.org/2000/svg">
<path d="M47.6481 3.45748V23.0333H44.1628V6.10515H37.9412V23.0333H34.4559V3.45748H47.6481Z" fill="#333333"/>
<path d="M53.4842 23.315C51.948 23.315 50.7671 23.0239 49.9414 22.4418V19.7097C50.383 20.0101 50.8631 20.2448 51.3816 20.4138C51.9192 20.5828 52.5529 20.6673 53.2826 20.6673C54.3772 20.6673 55.2029 20.3575 55.7598 19.7378C56.3166 19.0994 56.6623 18.2262 56.7967 17.1183H51.756V14.4707H56.7679C56.4414 12.3112 55.3085 11.2315 53.369 11.2315C52.7737 11.2315 52.1785 11.3254 51.5832 11.5132C51.0071 11.7009 50.5462 11.8981 50.2006 12.1047V9.25982C50.5654 9.07204 51.0551 8.91243 51.6696 8.78098C52.2841 8.64954 53.0234 8.58382 53.8875 8.58382C54.9628 8.58382 55.9038 8.7716 56.7103 9.14715C57.536 9.50393 58.2177 10.0109 58.7554 10.6682C59.3122 11.3066 59.7251 12.0859 59.9939 13.006C60.282 13.9073 60.426 14.8932 60.426 15.9635C60.426 18.3483 59.8499 20.1697 58.6978 21.4278C57.5648 22.6859 55.827 23.315 53.4842 23.315Z" fill="#333333"/>
<path d="M68.5725 7.00648C67.1899 7.00648 66.1434 6.66849 65.4329 5.99249C64.7416 5.31648 64.396 4.47148 64.396 3.45748H67.2764C67.2764 3.94571 67.3916 4.30248 67.622 4.52782C67.8716 4.75315 68.1885 4.86582 68.5725 4.86582C68.9374 4.86582 69.2254 4.75315 69.4367 4.52782C69.6479 4.28371 69.7535 3.92693 69.7535 3.45748H72.6339C72.6339 3.94571 72.5475 4.40576 72.3747 4.83765C72.2018 5.26954 71.9426 5.6451 71.597 5.96432C71.2705 6.28354 70.8481 6.53704 70.3296 6.72482C69.8303 6.9126 69.2446 7.00648 68.5725 7.00648ZM66.0378 8.86548V17.6535L71.2801 8.86548H74.3333V23.0333H71.0209V14.2735L65.7786 23.0333H62.7253V8.86548H66.0378Z" fill="#333333"/>
<path d="M27.2936 13.5C27.2936 20.6797 21.3329 26.5 13.9801 26.5C6.62727 26.5 0.666626 20.6797 0.666626 13.5C0.666626 6.3203 6.62727 0.5 13.9801 0.5C21.3329 0.5 27.2936 6.3203 27.2936 13.5Z" fill="#FC3F1D"/>
<path d="M15.8557 21.3129H18.6372V5.71289H14.5915C10.5228 5.71289 8.385 7.75548 8.385 10.7633C8.385 13.165 9.55733 14.5791 11.6491 16.0381L8.01721 21.3129H11.0285L15.0742 15.4096L13.672 14.4893C11.971 13.367 11.1434 12.4916 11.1434 10.6061C11.1434 8.94512 12.3387 7.82282 14.6145 7.82282H15.8557V21.3129Z" fill="white"/>
</svg>
